<?xml version="1.0" standalone="no"?>
<!DOCTYPE svg PUBLIC "-//W3C//DTD SVG 20010904//EN"
 "http://www.w3.org/TR/2001/REC-SVG-20010904/DTD/svg10.dtd">
<svg version="1.0" xmlns="http://www.w3.org/2000/svg"
 width="700.000000pt" height="700.000000pt" viewBox="0 0 700.000000 700.000000"
 preserveAspectRatio="xMidYMid meet">
<metadata>
Created by potrace 1.14, written by Peter Selinger 2001-2017
</metadata>
<g transform="translate(0.000000,700.000000) scale(0.100000,-0.100000)"
fill="#000000" stroke="none">
<path d="M1414 6985 c-406 -60 -772 -262 -1029 -570 -27 -33 -52 -62 -55 -65
-14 -12 -101 -152 -138 -220 -87 -161 -157 -379 -179 -560 -10 -83 -11 -4030
0 -4132 10 -105 56 -281 106 -408 77 -199 206 -393 364 -550 100 -98 90 -90
187 -161 96 -70 173 -116 280 -167 72 -33 199 -81 235 -88 6 -1 37 -9 70 -17
58 -15 76 -19 180 -34 64 -10 4026 -10 4121 -1 39 4 77 10 85 12 8 3 30 7 49
10 152 22 404 126 570 235 196 128 377 315 500 516 84 136 178 368 196 483 3
20 8 40 11 44 2 5 10 54 18 110 12 86 13 443 12 2108 -2 1103 -6 2021 -10
2040 -3 19 -9 55 -12 79 -3 25 -8 48 -10 51 -2 4 -7 22 -10 41 -3 19 -24 88
-46 153 -158 467 -527 842 -994 1010 -65 23 -223 64 -320 82 -22 4 -951 9
-2065 10 -1636 1 -2042 -1 -2116 -11z"/>
</g>
</svg>
